<mxfile host="app.diagrams.net" modified="2024-07-23T15:02:25.812Z" agent="Mozilla/5.0 (Macintosh; Intel Mac OS X 10_15_7) AppleWebKit/537.36 (KHTML, like Gecko) Chrome/126.0.0.0 Safari/537.36" version="24.7.1" etag="ihl2gBIxPGOwrwrpks34" type="github">
  <diagram name="Page-1" id="A2uZHf_kRjyIlVBcaURs">
    <mxGraphModel>
      <root>
        <mxCell id="0" />
        <mxCell id="1" parent="0" />
      </root>
    </mxGraphModel>
  </diagram>
</mxfile>
